<mxfile host="app.diagrams.net" modified="2024-02-22T15:43:45.958Z" agent="Mozilla/5.0 (Windows NT 10.0; Win64; x64) AppleWebKit/537.36 (KHTML, like Gecko) Chrome/121.0.0.0 Safari/537.36" version="23.1.5" etag="U_0-kZBO5YG63r9q4Pu_" type="github">
  <diagram name="Page-1" id="lasnzib_peXPJSRhNsNI">
    <mxGraphModel>
      <root>
        <mxCell id="0" />
        <mxCell id="1" parent="0" />
      </root>
    </mxGraphModel>
  </diagram>
</mxfile>
